<svg xmlns="http://www.w3.org/2000/svg" viewBox="0 0 24 24"><path d="M11.032 3.048A2.66 2.66 0 0 0 8.371 5.71v2.177h-1.21A2.66 2.66 0 0 0 4.5 10.548v7.742a2.66 2.66 0 0 0 2.661 2.662h5.807a2.66 2.66 0 0 0 2.661-2.662v-2.177h1.21a2.66 2.66 0 0 0 2.661-2.661V5.71a2.66 2.66 0 0 0-2.661-2.662zm4.597 11.613h1.21a1.21 1.21 0 0 0 1.21-1.21V5.71a1.21 1.21 0 0 0-1.21-1.21h-5.807a1.21 1.21 0 0 0-1.21 1.21v2.177h3.146a2.66 2.66 0 0 1 2.661 2.661zm-9.677-4.113c0-.668.541-1.21 1.21-1.21h5.806c.668 0 1.21.542 1.21 1.21v7.742a1.21 1.21 0 0 1-1.21 1.21H7.16a1.21 1.21 0 0 1-1.21-1.21z" fill="#7F7F7F"/></svg>
