<svg xmlns="http://www.w3.org/2000/svg" viewBox="0 0 24 24"><path d="M3.773 15.234q0-1.36.477-2.468.477-1.11 1.297-1.766a2.86 2.86 0 0 1 1.844-.664h1.351q.64-.78 1.172-1.477.54-.702 1-1.367.469-.664.86-1.312.397-.657.75-1.336.39-.75.828-1.078a1.7 1.7 0 0 1 1.046-.336q.547 0 .97.257.429.25.679.696.25.437.25 1.008 0 .577-.195 1.195-.188.61-.438 1.187-.242.578-.437 1.055-.187.47-.204.766 0 .101.063.156a.3.3 0 0 0 .18.055h2.828q.6 0 1.078.289.485.281.765.765.29.485.29 1.086 0 .72-.336 1.242.11.204.172.47A2.34 2.34 0 0 1 19.984 15q-.14.383-.406.664.165.375.164.844 0 1.008-.812 1.656.039.125.054.242.016.126.016.258 0 .735-.492 1.297-.492.563-1.328.758a6 6 0 0 1-1.024.156 18 18 0 0 1-1.351.047H13.75a8 8 0 0 1-1.914-.219 7.3 7.3 0 0 1-1.664-.601H7.68a3.2 3.2 0 0 1-1.54-.383 4.1 4.1 0 0 1-1.242-1.055 5.1 5.1 0 0 1-.828-1.547 5.9 5.9 0 0 1-.297-1.883m4.727-.062q0 1.273.664 2.258.665.976 1.86 1.53 1.203.555 2.796.563h.914q.704 0 1.235-.039.53-.03.86-.117.382-.102.562-.289.18-.18.18-.422a.8.8 0 0 0-.032-.234 3 3 0 0 0-.148-.406.46.46 0 0 1-.024-.344.5.5 0 0 1 .235-.29q.71-.366.71-.882a.8.8 0 0 0-.062-.32 5 5 0 0 0-.187-.383.65.65 0 0 1-.055-.445.66.66 0 0 1 .258-.352 1.2 1.2 0 0 0 .336-.367.9.9 0 0 0 .109-.43.9.9 0 0 0-.07-.367 2.2 2.2 0 0 0-.235-.406.48.48 0 0 1-.117-.336.52.52 0 0 1 .172-.344q.195-.195.273-.367a.9.9 0 0 0 .086-.414.74.74 0 0 0-.218-.547.74.74 0 0 0-.547-.219h-2.72q-.75 0-1.241-.406-.485-.407-.485-1.094 0-.461.188-1.015.195-.555.445-1.133.258-.586.453-1.125.195-.54.196-.961 0-.274-.133-.422a.44.44 0 0 0-.344-.149.5.5 0 0 0-.328.118q-.14.117-.32.484-.57 1.14-1.258 2.14a34 34 0 0 1-1.367 1.876q-.68.875-1.258 1.64-.508.696-.813 1.305a5 5 0 0 0-.437 1.258 7.3 7.3 0 0 0-.133 1.453m-3.344.062q0 .946.336 1.735t.89 1.265 1.212.5h.43q.21.008.421.008a5.4 5.4 0 0 1-1-1.625 5.3 5.3 0 0 1-.351-1.945q0-.984.18-1.82a6.8 6.8 0 0 1 .585-1.625h-.296a5 5 0 0 0-.29.007q-.563.024-1.046.5-.485.47-.782 1.258a5 5 0 0 0-.289 1.742" fill="#7F7F7F"/></svg>
