<svg xmlns="http://www.w3.org/2000/svg" viewBox="0 0 24 24"><path d="M20.227 9.328q0 1.36-.485 2.477-.477 1.11-1.297 1.765a2.85 2.85 0 0 1-1.836.657H15.25a51 51 0 0 0-1.172 1.484q-.54.703-1 1.367-.46.657-.86 1.305a21 21 0 0 0-.75 1.344q-.39.741-.835 1.07a1.65 1.65 0 0 1-1.031.336 1.9 1.9 0 0 1-.985-.25 1.84 1.84 0 0 1-.672-.695 2.1 2.1 0 0 1-.242-1.016q0-.57.188-1.188.187-.624.43-1.195.25-.578.437-1.047.195-.477.21-.765.009-.102-.062-.157a.3.3 0 0 0-.18-.054h-2.82q-.6 0-1.086-.282a2.14 2.14 0 0 1-.765-.773 2.17 2.17 0 0 1-.282-1.094q0-.727.329-1.234-.11-.21-.172-.477a2.4 2.4 0 0 1-.063-.539q0-.422.14-.805.15-.382.415-.664a2.1 2.1 0 0 1-.164-.843q0-1.008.805-1.657a3 3 0 0 1-.055-.242 2 2 0 0 1-.016-.25q0-.75.492-1.304.493-.555 1.329-.758a6.5 6.5 0 0 1 1.023-.149q.617-.054 1.351-.054h1.063a8 8 0 0 1 1.898.218 7.6 7.6 0 0 1 1.672.61h2.5q.82 0 1.524.383.711.375 1.242 1.046.54.672.836 1.555.305.883.305 1.875m-4.735.063q0-1.275-.664-2.25-.655-.977-1.86-1.532-1.194-.562-2.796-.57h-.914q-.696 0-1.227.04a5 5 0 0 0-.867.124q-.383.094-.562.281-.18.18-.18.422 0 .126.031.235t.149.398q.078.18.023.36a.45.45 0 0 1-.227.273q-.718.383-.718.898 0 .18.062.328.063.142.188.375a.6.6 0 0 1 .047.438.6.6 0 0 1-.243.344 1.3 1.3 0 0 0-.351.383.86.86 0 0 0-.11.43q0 .195.079.366.078.165.234.407a.42.42 0 0 1 .117.336.5.5 0 0 1-.164.335q-.195.196-.281.376a1 1 0 0 0-.078.406q0 .328.21.547a.74.74 0 0 0 .548.218h2.726q.742 0 1.234.407.493.406.493 1.093a3.1 3.1 0 0 1-.196 1.024q-.187.555-.445 1.133-.25.577-.445 1.117-.196.54-.196.96 0 .275.133.423t.336.148q.18 0 .32-.117.15-.117.329-.477.57-1.14 1.25-2.14.687-1.008 1.375-1.883t1.257-1.64q.516-.689.82-1.298.306-.609.43-1.257.133-.65.133-1.461m3.344-.063q0-.946-.336-1.726-.335-.789-.89-1.266-.555-.484-1.212-.508h-.851q.655.72 1 1.625.351.906.351 1.938 0 .984-.187 1.828a6.6 6.6 0 0 1-.578 1.617h.586q.57-.024 1.047-.5.484-.477.773-1.258.297-.79.297-1.75" fill="#7F7F7F"/></svg>
