<svg xmlns="http://www.w3.org/2000/svg" viewBox="0 0 24 24"><path d="M10.44 5.69a6.5 6.5 0 0 1 8.014 5.534h-1.072q-.46 0-.58.29-.113.29.153.661l1.925 2.707q.218.298.508.306.298 0 .523-.306l1.918-2.707q.266-.37.145-.66-.112-.29-.58-.29h-1.432A7.999 7.999 0 0 0 6.007 6.7a.75.75 0 0 0 1.124.993 6.5 6.5 0 0 1 3.31-2.004M2.155 12.2 4.08 9.491q.225-.306.516-.298.298 0 .515.298l1.918 2.715q.274.363.153.653-.12.29-.58.29h-1a6.5 6.5 0 0 0 11.267 3.156.75.75 0 0 1 1.124.993 8 8 0 0 1-13.91-4.15H2.582q-.468 0-.58-.29-.114-.29.153-.66" fill="#7F7F7F"/></svg>
