<svg xmlns="http://www.w3.org/2000/svg" viewBox="0 0 28 28"><path d="M14.007 28q-2.881 0-5.418-1.11a14.3 14.3 0 0 1-4.453-3.026 14.5 14.5 0 0 1-3.04-4.453Q0 16.875 0 13.993q0-2.868 1.095-5.404Q2.191 6.053 4.121 4.12A14.5 14.5 0 0 1 8.59 1.095Q11.124 0 13.993 0t5.404 1.095q2.536 1.096 4.467 3.026A14.2 14.2 0 0 1 26.89 8.59Q28 11.124 28 13.993q0 2.881-1.095 5.418a14.3 14.3 0 0 1-3.027 4.453 14.2 14.2 0 0 1-4.467 3.026Q16.876 28 14.007 28m.015-6.917q.518 0 .835-.317.332-.332.332-.836v-6.816l-.13-2.969 1.37 1.672 1.599 1.643q.316.33.807.331.475 0 .792-.303a.99.99 0 0 0 .332-.763q0-.475-.332-.807L14.944 7.22q-.433-.447-.922-.447-.476 0-.908.447L8.43 11.918q-.317.317-.317.807 0 .461.317.763.318.303.778.303.49 0 .807-.331l1.629-1.658 1.326-1.642-.116 2.954v6.816q0 .504.332.836.331.317.836.317" fill="#DCDCDC"/></svg>
