<svg xmlns="http://www.w3.org/2000/svg" viewBox="0 0 1024 1024"><path d="M663.9744 687.376v85.024c0 21.0336-17.1936 38.0928-38.4 38.0928h-227.1488c-21.2096 0-38.4-17.0592-38.4-38.0928v-85.024c-145.376-83.2512-195.1872-267.6352-111.2544-411.8336C303.072 182.2624 403.408 124.8 512 124.8c108.5888 0 208.9312 57.4624 263.2288 150.7424 83.9328 144.1952 34.1184 328.5824-111.2544 411.8336z m-291.8112-206.0832c7.6416 19.152 18.8064 36.0128 33.4912 50.5792a148.896 148.896 0 0 0 50.9856 33.2256 150.16 150.16 0 0 0 55.36 10.4768 150.1344 150.1344 0 0 0 55.36-10.4768 148.8832 148.8832 0 0 0 50.992-33.2256c14.6816-14.5664 25.8464-31.4272 33.488-50.5792a148.6592 148.6592 0 0 0 7.2032-23.4528c3.7344-17.1392-10.9664-31.4688-28.64-31.4688s-31.504 14.9216-37.9488 31.248a84.7648 84.7648 0 0 1-19.3568 29.36 85.5904 85.5904 0 0 1-29.2896 19.0848 86.2528 86.2528 0 0 1-31.808 6.0192c-10.9856 0-21.5872-2.0064-31.8016-6.0192a85.5616 85.5616 0 0 1-29.2896-19.0848 84.8 84.8 0 0 1-19.2416-29.056l-0.1184-0.304c-6.4448-16.3264-20.2752-31.248-37.9456-31.248-17.6736 0-32.3776 14.3296-28.64 31.4688a148.5824 148.5824 0 0 0 7.2 23.4528zM633.6 858.112c17.6736 0 32 14.208 32 31.7408S651.2736 921.6 633.6 921.6h-243.2c-17.6736 0-32-14.2144-32-31.7472 0-17.5328 14.3264-31.7408 32-31.7408h243.2z" fill="#004AD9"/></svg>
