<svg xmlns="http://www.w3.org/2000/svg" viewBox="0 0 1024 1024"><path d="M872.4992 806.0832a89.9616 89.9616 0 0 1-28.8256 19.5008 89.4912 89.4912 0 0 1-35.3216 7.1648l-136.7456 0.0032-201.6352 116.9056a30.1408 30.1408 0 0 1-22.4832 3.1584 30.2528 30.2528 0 0 1-18.5856-13.8464 30.4544 30.4544 0 0 1-3.3856-22.9824l20.8064-83.2352-230.6752-0.0032c-12.2912 0-24.064-2.3872-35.3216-7.1648a90 90 0 0 1-28.8256-19.5008 90.3328 90.3328 0 0 1-19.4304-28.9376 90.3904 90.3904 0 0 1-7.1424-35.456V282.9312c0-12.3392 2.3808-24.1568 7.1424-35.456a90.32 90.32 0 0 1 19.4304-28.9344 89.9456 89.9456 0 0 1 28.8256-19.5008 89.4848 89.4848 0 0 1 35.3216-7.168h592.704c12.2912 0 24.0672 2.3904 35.3216 7.168a89.9104 89.9104 0 0 1 28.8256 19.5008 90.304 90.304 0 0 1 19.4304 28.9376 90.384 90.384 0 0 1 7.1424 35.4528v458.784a90.3808 90.3808 0 0 1-7.1424 35.4304 90.32 90.32 0 0 1-19.4304 28.9376z m-486.736-296.832c0-29.152-23.5488-52.7904-52.592-52.7904-29.0464 0-52.592 23.6352-52.592 52.7904 0 29.152 23.5456 52.7872 52.592 52.7872 29.0432 0 52.592-23.6352 52.592-52.7872z m180.3104 0c0-29.152-23.5456-52.7904-52.592-52.7904-29.0432 0-52.5888 23.6352-52.5888 52.7904 0 29.152 23.5456 52.7872 52.5888 52.7872 29.0464 0 52.592-23.6352 52.592-52.7872z m180.3104 0c0-29.152-23.5424-52.7904-52.5888-52.7904-29.0464 0-52.592 23.6352-52.592 52.7904 0 29.152 23.5456 52.7872 52.592 52.7872 29.0464 0 52.5888-23.6352 52.5888-52.7872z" fill="#004AD9"/></svg>
