<svg xmlns="http://www.w3.org/2000/svg" viewBox="0 0 24 24"><path d="M15.229 9.412a.9.9 0 0 1 .247-.617.7.7 0 0 1 .588-.24.8.8 0 0 1 .617.257q.27.258.269.606v7.07q0 1.11-.392 2.03a4.783 4.783 0 0 1-2.652 2.618 5 5 0 0 1-1.9.364 4.98 4.98 0 0 1-3.493-1.396 4.8 4.8 0 0 1-1.065-1.58 5.2 5.2 0 0 1-.387-2.036L7.05 6.268q0-1.145.482-1.985a3.43 3.43 0 0 1 1.295-1.318 3.56 3.56 0 0 1 1.8-.465q1.02 0 1.827.47.807.46 1.278 1.313.471.84.471 1.984v10.064q0 .651-.291 1.166-.287.51-.785.808-.494.302-1.127.297a2.03 2.03 0 0 1-1.076-.292 2.35 2.35 0 0 1-.813-.813 2.26 2.26 0 0 1-.308-1.171V9.737q0-.359.235-.605a.77.77 0 0 1 .583-.247.76.76 0 0 1 .589.241q.23.24.235.606l-.011 6.555q.005.308.185.454.18.134.381.134a.66.66 0 0 0 .387-.14q.184-.14.18-.448L12.56 6.284q0-.571-.23-1.06a1.95 1.95 0 0 0-.65-.796 1.7 1.7 0 0 0-1.01-.302 1.6 1.6 0 0 0-.997.302 2.03 2.03 0 0 0-.662.796q-.23.489-.23 1.06L8.777 16.42q.005 1.026.443 1.777.431.745 1.165 1.155a3.3 3.3 0 0 0 1.615.392q.885.012 1.62-.398.735-.409 1.166-1.154.443-.747.437-1.772z" fill="004AD9"/></svg>
